<svg width="20" height="21" viewBox="0 0 20 21" fill="none" xmlns="http://www.w3.org/2000/svg">
<path d="M10 6.75V10.5" stroke="#6D7076" stroke-width="1.5" stroke-linecap="round" stroke-linejoin="round"/>
<path d="M13.2476 12.375L10 10.5" stroke="#6D7076" stroke-width="1.5" stroke-linecap="round" stroke-linejoin="round"/>
<path d="M5.61195 8.29028H2.48695V5.16528" stroke="#6D7076" stroke-width="1.5" stroke-linecap="round" stroke-linejoin="round"/>
<path d="M5.13864 15.3614C6.10013 16.3229 7.32514 16.9776 8.65875 17.2429C9.99237 17.5082 11.3747 17.372 12.6309 16.8517C13.8872 16.3313 14.9609 15.4501 15.7164 14.3196C16.4718 13.189 16.875 11.8598 16.875 10.5C16.875 9.14026 16.4718 7.81105 15.7164 6.68046C14.9609 5.54987 13.8872 4.66868 12.6309 4.14833C11.3747 3.62798 9.99237 3.49183 8.65875 3.7571C7.32514 4.02238 6.10013 4.67716 5.13864 5.63864L2.48699 8.29029" stroke="#6D7076" stroke-width="1.5" stroke-linecap="round" stroke-linejoin="round"/>
</svg>
