<svg width="20" height="21" viewBox="0 0 20 21" fill="none" xmlns="http://www.w3.org/2000/svg">
<rect y="0.5" width="20" height="20" rx="2" fill="#F2F2F2"/>
<path d="M13.25 5.5H13.25C13.7141 5.5 14.1593 5.68437 14.4874 6.01256C14.8156 6.34075 15 6.78587 15 7.25V7.25C15 7.71413 14.8156 8.15925 14.4874 8.48744C14.1592 8.81563 13.7141 9 13.25 9H11.5V7.25C11.5 6.78587 11.6844 6.34075 12.0126 6.01256C12.3408 5.68437 12.7859 5.5 13.25 5.5V5.5Z" stroke="#727272" stroke-width="1.5" stroke-linecap="round" stroke-linejoin="round"/>
<path d="M8.5 9H6.75C6.28587 9 5.84075 8.81563 5.51256 8.48744C5.18437 8.15925 5 7.71413 5 7.25V7.25C5 6.78587 5.18437 6.34075 5.51256 6.01256C5.84075 5.68437 6.28587 5.5 6.75 5.5H6.75C7.21413 5.5 7.65925 5.68437 7.98744 6.01256C8.31563 6.34075 8.5 6.78587 8.5 7.25V9Z" stroke="#727272" stroke-width="1.5" stroke-linecap="round" stroke-linejoin="round"/>
<path d="M11.5 12H13.25C13.7141 12 14.1592 12.1844 14.4874 12.5126C14.8156 12.8408 15 13.2859 15 13.75V13.75C15 14.2141 14.8156 14.6593 14.4874 14.9874C14.1593 15.3156 13.7141 15.5 13.25 15.5H13.25C12.7859 15.5 12.3408 15.3156 12.0126 14.9874C11.6844 14.6592 11.5 14.2141 11.5 13.75V12Z" stroke="#727272" stroke-width="1.5" stroke-linecap="round" stroke-linejoin="round"/>
<path d="M6.75 15.5H6.75C6.28587 15.5 5.84075 15.3156 5.51256 14.9874C5.18437 14.6593 5 14.2141 5 13.75V13.75C5 13.2859 5.18437 12.8408 5.51256 12.5126C5.84075 12.1844 6.28587 12 6.75 12H8.5V13.75C8.5 14.2141 8.31563 14.6592 7.98744 14.9874C7.65925 15.3156 7.21413 15.5 6.75 15.5V15.5Z" stroke="#727272" stroke-width="1.5" stroke-linecap="round" stroke-linejoin="round"/>
<path d="M11.5 9H8.5V12H11.5V9Z" stroke="#727272" stroke-width="1.5" stroke-linecap="round" stroke-linejoin="round"/>
</svg>
