<svg width="24" height="24" viewBox="0 0 24 24" fill="none" xmlns="http://www.w3.org/2000/svg">
<path d="M10.7249 11.8125C10.7249 12.3303 11.1446 12.75 11.6624 12.75C12.1801 12.75 12.5999 12.3303 12.5999 11.8125C12.5999 11.2947 12.1801 10.875 11.6624 10.875C11.1446 10.875 10.7249 11.2947 10.7249 11.8125Z" fill="black"/>
<path d="M10.7249 17.8125C10.7249 18.3303 11.1446 18.75 11.6624 18.75C12.1801 18.75 12.5999 18.3303 12.5999 17.8125C12.5999 17.2947 12.1801 16.875 11.6624 16.875C11.1446 16.875 10.7249 17.2947 10.7249 17.8125Z" fill="black"/>
<path d="M10.7249 5.8125C10.7249 6.33027 11.1446 6.75 11.6624 6.75C12.1801 6.75 12.5999 6.33027 12.5999 5.8125C12.5999 5.29473 12.1801 4.875 11.6624 4.875C11.1446 4.875 10.7249 5.29473 10.7249 5.8125Z" fill="black"/>
</svg>
