<svg width="16" height="17" viewBox="0 0 16 17" fill="none" xmlns="http://www.w3.org/2000/svg">
<path d="M2.63025 3.5H13.3697C13.4666 3.5 13.5613 3.52814 13.6425 3.58099C13.7237 3.63384 13.7878 3.70914 13.827 3.79772C13.8661 3.88631 13.8788 3.98437 13.8633 4.07999C13.8478 4.1756 13.8048 4.26466 13.7397 4.33634L9.63 8.85697C9.54633 8.949 9.49997 9.06892 9.49997 9.1933V12.7324C9.49997 12.8147 9.47965 12.8958 9.44081 12.9683C9.40197 13.0409 9.34581 13.1028 9.27732 13.1484L7.27732 14.4818C7.20202 14.532 7.11451 14.5608 7.02412 14.5652C6.93372 14.5695 6.84384 14.5493 6.76404 14.5066C6.68425 14.4639 6.61755 14.4003 6.57104 14.3227C6.52454 14.245 6.49997 14.1562 6.49997 14.0657V9.1933C6.49997 9.06892 6.45361 8.949 6.36994 8.85697L2.26028 4.33634C2.19512 4.26466 2.15218 4.1756 2.13669 4.07999C2.12119 3.98437 2.13381 3.88631 2.17299 3.79772C2.21218 3.70914 2.27625 3.63384 2.35743 3.58099C2.4386 3.52814 2.53338 3.5 2.63025 3.5V3.5Z" stroke="black" stroke-width="1.5" stroke-linecap="round" stroke-linejoin="round"/>
</svg>
